<svg xmlns="http://www.w3.org/2000/svg" xmlns:xlink="http://www.w3.org/1999/xlink" version="1.1" width="1000" height="1000" viewBox="0 0 1000 1000" xml:space="preserve">
<desc>Created with Fabric.js 3.5.0</desc>
<defs>
</defs>
<rect x="0" y="0" width="100%" height="100%" fill="#ffffff"/>
<g transform="matrix(1.8182 0 0 1.8182 500.0045 500.0045)" id="128319">
<g style="" vector-effect="non-scaling-stroke">
		<g transform="matrix(1 0 0 1 -4.8598 -17.4157)" id="&#x56fe;&#x5c42;_1">
<path style="stroke: rgb(35,24,21); stroke-width: 1; stroke-dasharray: none; stroke-linecap: butt; stroke-dashoffset: 0; stroke-linejoin: miter; stroke-miterlimit: 10; is-custom-font: none; font-file-url: none; fill: rgb(248,182,45); fill-rule: nonzero; opacity: 1;" transform=" translate(-245.1401, -232.5844)" d="M 236.75 272.11 A 82.26 82.26 0 0 1 316 241.64 a 76.19 76.19 0 0 1 10.36 2.59 a 82.65 82.65 0 0 0 -64.92 -68.08 C 228.11 169.4 193.17 185 175.64 214 a 83 83 0 0 0 -4.41 76.58 c 0.47 -0.46 0.94 -0.92 1.42 -1.37 A 70.52 70.52 0 0 1 236.75 272.11 Z" stroke-linecap="round"/>
</g>
		<g transform="matrix(1 0 0 1 -4.4184 -18.3887)" id="&#x56fe;&#x5c42;_1">
<path style="stroke: rgb(35,24,21); stroke-width: 1; stroke-dasharray: none; stroke-linecap: butt; stroke-dashoffset: 0; stroke-linejoin: miter; stroke-miterlimit: 10; is-custom-font: none; font-file-url: none; fill: rgb(35,24,21); fill-rule: nonzero; opacity: 1;" transform=" translate(-245.5816, -231.6113)" d="M 171.23 290.58 A 83 83 0 0 1 175.64 214 c 17.54 -28.95 52.48 -44.6 85.76 -37.86 a 82.65 82.65 0 0 1 64.92 68.08 a 78.27 78.27 0 0 1 15.84 7.19 a 98 98 0 0 0 -63.86 -86.09 c -37.69 -13.82 -81.9 -1.62 -107.27 29.43 c -25 30.6 -29.26 74.3 -10 108.8 A 67.76 67.76 0 0 1 171.23 290.58 Z" stroke-linecap="round"/>
</g>
		<g transform="matrix(1 0 0 1 -4.43 -135.285)" id="&#x56fe;&#x5c42;_1">
<path style="stroke: rgb(35,24,21); stroke-width: 1; stroke-dasharray: none; stroke-linecap: butt; stroke-dashoffset: 0; stroke-linejoin: miter; stroke-miterlimit: 10; is-custom-font: none; font-file-url: none; fill: rgb(35,24,21); fill-rule: nonzero; opacity: 1;" transform=" translate(-245.57, -114.715)" d="M 253.07 131.54 V 97.89 c 0 -9.65 -15 -9.67 -15 0 v 33.65 C 238.07 141.19 253.07 141.21 253.07 131.54 Z m -7.5 -33.65 v 0 Z" stroke-linecap="round"/>
</g>
		<g transform="matrix(1 0 0 1 -75.255 -116.31)" id="&#x56fe;&#x5c42;_1">
<path style="stroke: rgb(35,24,21); stroke-width: 1; stroke-dasharray: none; stroke-linecap: butt; stroke-dashoffset: 0; stroke-linejoin: miter; stroke-miterlimit: 10; is-custom-font: none; font-file-url: none; fill: rgb(35,24,21); fill-rule: nonzero; opacity: 1;" transform=" translate(-174.745, -133.69)" d="M 176.66 152.05 c 4.83 8.36 17.79 0.81 13 -7.57 l -16.83 -29.15 c -4.83 -8.36 -17.79 -0.81 -13 7.57 Z m 6.48 -3.79 l -16.83 -29.15 Z" stroke-linecap="round"/>
</g>
		<g transform="matrix(1 0 0 1 -127.142 -64.4347)" id="&#x56fe;&#x5c42;_1">
<path style="stroke: rgb(35,24,21); stroke-width: 1; stroke-dasharray: none; stroke-linecap: butt; stroke-dashoffset: 0; stroke-linejoin: miter; stroke-miterlimit: 10; is-custom-font: none; font-file-url: none; fill: rgb(35,24,21); fill-rule: nonzero; opacity: 1;" transform=" translate(-122.858, -185.5653)" d="M 141.22 187.49 l -29.15 -16.83 c -8.37 -4.84 -15.94 8.12 -7.57 13 l 29.15 16.83 C 142 205.28 149.59 192.32 141.22 187.49 Z m -32.93 -10.35 L 137.44 194 Z" stroke-linecap="round"/>
</g>
		<g transform="matrix(1 0 0 1 -146.1169 6.4)" id="&#x56fe;&#x5c42;_1">
<path style="stroke: rgb(35,24,21); stroke-width: 1; stroke-dasharray: none; stroke-linecap: butt; stroke-dashoffset: 0; stroke-linejoin: miter; stroke-miterlimit: 10; is-custom-font: none; font-file-url: none; fill: rgb(35,24,21); fill-rule: nonzero; opacity: 1;" transform=" translate(-103.8831, -256.4)" d="M 87.06 263.9 h 33.65 c 9.65 0 9.67 -15 0 -15 H 87.06 C 77.4 248.9 77.39 263.9 87.06 263.9 Z m 33.65 -7.5 h 0 Z" stroke-linecap="round"/>
</g>
		<g transform="matrix(1 0 0 1 -127.131 77.2294)" id="&#x56fe;&#x5c42;_1">
<path style="stroke: rgb(35,24,21); stroke-width: 1; stroke-dasharray: none; stroke-linecap: butt; stroke-dashoffset: 0; stroke-linejoin: miter; stroke-miterlimit: 10; is-custom-font: none; font-file-url: none; fill: rgb(35,24,21); fill-rule: nonzero; opacity: 1;" transform=" translate(-122.869, -327.2293)" d="M 112.08 342.13 l 29.15 -16.83 c 8.36 -4.83 0.81 -17.79 -7.57 -13 l -29.15 16.83 C 96.15 334 103.69 347 112.08 342.13 Z m 25.36 -23.3 l -29.15 16.83 Z" stroke-linecap="round"/>
</g>
		<g transform="matrix(1 0 0 1 137.245 6.4)" id="&#x56fe;&#x5c42;_1">
<path style="stroke: rgb(35,24,21); stroke-width: 1; stroke-dasharray: none; stroke-linecap: butt; stroke-dashoffset: 0; stroke-linejoin: miter; stroke-miterlimit: 10; is-custom-font: none; font-file-url: none; fill: rgb(35,24,21); fill-rule: nonzero; opacity: 1;" transform=" translate(-387.245, -256.4)" d="M 370.42 263.9 h 33.65 c 9.65 0 9.67 -15 0 -15 H 370.42 C 360.77 248.9 360.75 263.9 370.42 263.9 Z m 0 -7.5 h 0 Z" stroke-linecap="round"/>
</g>
		<g transform="matrix(1 0 0 1 118.27 -64.4653)" id="&#x56fe;&#x5c42;_1">
<path style="stroke: rgb(35,24,21); stroke-width: 1; stroke-dasharray: none; stroke-linecap: butt; stroke-dashoffset: 0; stroke-linejoin: miter; stroke-miterlimit: 10; is-custom-font: none; font-file-url: none; fill: rgb(35,24,21); fill-rule: nonzero; opacity: 1;" transform=" translate(-368.27, -185.5347)" d="M 357.48 200.44 l 29.15 -16.83 c 8.36 -4.83 0.81 -17.79 -7.57 -13 l -29.15 16.83 C 341.55 192.32 349.1 205.28 357.48 200.44 Z m 25.36 -23.3 L 353.7 194 Z" stroke-linecap="round"/>
</g>
		<g transform="matrix(1 0 0 1 66.3947 -116.3091)" id="&#x56fe;&#x5c42;_1">
<path style="stroke: rgb(35,24,21); stroke-width: 1; stroke-dasharray: none; stroke-linecap: butt; stroke-dashoffset: 0; stroke-linejoin: miter; stroke-miterlimit: 10; is-custom-font: none; font-file-url: none; fill: rgb(35,24,21); fill-rule: nonzero; opacity: 1;" transform=" translate(-316.3947, -133.691)" d="M 314.47 152.05 l 16.83 -29.15 c 4.84 -8.37 -8.12 -15.94 -13 -7.57 l -16.83 29.15 C 296.68 152.86 309.64 160.42 314.47 152.05 Z m 10.35 -32.93 L 308 148.27 Z" stroke-linecap="round"/>
</g>
		<g transform="matrix(1 0 0 1 35.6899 101.4933)" id="&#x56fe;&#x5c42;_1">
<path style="stroke: rgb(35,24,21); stroke-width: 1; stroke-dasharray: none; stroke-linecap: butt; stroke-dashoffset: 0; stroke-linejoin: miter; stroke-miterlimit: 10; is-custom-font: none; font-file-url: none; fill: rgb(35,24,21); fill-rule: nonzero; opacity: 1;" transform=" translate(-285.6899, -351.4933)" d="M 377.25 293.37 c 0.54 1.41 1.05 2.84 1.51 4.29 a 7.08 7.08 0 0 1 0.16 4.09 a 51.75 51.75 0 0 1 -17.73 100.37 H 220.54 a 62.23 62.23 0 0 1 -55 -91.35 c -1 -1.44 -1.95 -2.9 -2.86 -4.4 c -0.56 -0.93 -1.1 -1.87 -1.62 -2.81 a 71.25 71.25 0 0 0 -9.23 48 a 69.75 69.75 0 0 0 38.58 51.19 c 11.68 5.47 23.78 6.86 36.45 6.86 H 350.31 c 9.8 0 19.5 0.28 29 -2.82 c 24.63 -8.06 41.85 -31.83 41.13 -57.87 A 59.93 59.93 0 0 0 377.25 293.37 Z" stroke-linecap="round"/>
</g>
		<g transform="matrix(1 0 0 1 -0.755 19.0173)" id="&#x56fe;&#x5c42;_1">
<path style="stroke: rgb(35,24,21); stroke-width: 1; stroke-dasharray: none; stroke-linecap: butt; stroke-dashoffset: 0; stroke-linejoin: miter; stroke-miterlimit: 10; is-custom-font: none; font-file-url: none; fill: rgb(35,24,21); fill-rule: nonzero; opacity: 1;" transform=" translate(-249.245, -269.0173)" d="M 220.54 277.65 a 62.16 62.16 0 0 1 19.18 3 a 73.75 73.75 0 0 1 87.48 -28.16 a 82.09 82.09 0 0 0 -0.89 -8.29 A 76.19 76.19 0 0 0 316 241.64 a 82.26 82.26 0 0 0 -79.21 30.47 c 1.67 0.38 3.32 0.82 5 1.33 l -8.47 3.45 q 1.68 -2.46 3.5 -4.78 a 70.52 70.52 0 0 0 -64.11 17.1 c -0.48 0.45 -1 0.91 -1.42 1.38 a 78.51 78.51 0 0 0 3.63 7.06 A 62.05 62.05 0 0 1 220.54 277.65 Z" stroke-linecap="round"/>
</g>
		<g transform="matrix(1 0 0 1 -12.53 24.5)" id="&#x56fe;&#x5c42;_1">
<path style="stroke: rgb(35,24,21); stroke-width: 1; stroke-dasharray: none; stroke-linecap: butt; stroke-dashoffset: 0; stroke-linejoin: miter; stroke-miterlimit: 10; is-custom-font: none; font-file-url: none; fill: rgb(35,24,21); fill-rule: nonzero; opacity: 1;" transform=" translate(-237.47, -274.5)" d="M 241.72 273.44 c -1.65 -0.51 -3.3 -0.95 -5 -1.33 q -1.82 2.32 -3.5 4.78 Z" stroke-linecap="round"/>
</g>
		<g transform="matrix(1 0 0 1 109.7 22.41)" id="&#x56fe;&#x5c42;_1">
<path style="stroke: rgb(35,24,21); stroke-width: 1; stroke-dasharray: none; stroke-linecap: butt; stroke-dashoffset: 0; stroke-linejoin: miter; stroke-miterlimit: 10; is-custom-font: none; font-file-url: none; fill: rgb(35,24,21); fill-rule: nonzero; opacity: 1;" transform=" translate(-359.7, -272.41)" d="M 342.22 260.28 A 74 74 0 0 1 369 292.76 a 7.49 7.49 0 0 1 4.52 -0.35 c 1.26 0.27 2.5 0.6 3.73 1 a 83.68 83.68 0 0 0 -35.1 -42 c 0.1 1.65 0.17 3.31 0.18 5 C 342.32 257.7 342.28 259 342.22 260.28 Z" stroke-linecap="round"/>
</g>
		<g transform="matrix(1 0 0 1 124.0737 46.9684)" id="&#x56fe;&#x5c42;_1">
<path style="stroke: rgb(35,24,21); stroke-width: 1; stroke-dasharray: none; stroke-linecap: butt; stroke-dashoffset: 0; stroke-linejoin: miter; stroke-miterlimit: 10; is-custom-font: none; font-file-url: none; fill: rgb(35,24,21); fill-rule: nonzero; opacity: 1;" transform=" translate(-374.0737, -296.9684)" d="M 369 292.76 a 73 73 0 0 1 2.53 6.89 a 51.3 51.3 0 0 1 7.39 2.1 a 7.08 7.08 0 0 0 -0.16 -4.09 c -0.46 -1.45 -1 -2.87 -1.51 -4.29 c -1.23 -0.35 -2.47 -0.68 -3.73 -1 A 7.49 7.49 0 0 0 369 292.76 Z" stroke-linecap="round"/>
</g>
		<g transform="matrix(1 0 0 1 85.2566 4.5314)" id="&#x56fe;&#x5c42;_1">
<path style="stroke: rgb(35,24,21); stroke-width: 1; stroke-dasharray: none; stroke-linecap: butt; stroke-dashoffset: 0; stroke-linejoin: miter; stroke-miterlimit: 10; is-custom-font: none; font-file-url: none; fill: rgb(35,24,21); fill-rule: nonzero; opacity: 1;" transform=" translate(-335.2566, -254.5314)" d="M 342.33 256.4 c 0.06 -8.29 -11 -9.46 -14.15 -3.5 a 73.42 73.42 0 0 1 13.39 7 A 7.44 7.44 0 0 0 342.33 256.4 Z" stroke-linecap="round"/>
</g>
		<g transform="matrix(1 0 0 1 91.9559 8.335)" id="&#x56fe;&#x5c42;_1">
<path style="stroke: rgb(35,24,21); stroke-width: 1; stroke-dasharray: none; stroke-linecap: butt; stroke-dashoffset: 0; stroke-linejoin: miter; stroke-miterlimit: 10; is-custom-font: none; font-file-url: none; fill: rgb(35,24,21); fill-rule: nonzero; opacity: 1;" transform=" translate(-341.9559, -258.335)" d="M 342.22 260.28 c 0.06 -1.29 0.11 -2.59 0.12 -3.89 a 7.44 7.44 0 0 1 -0.77 3.46 Z" stroke-linecap="round"/>
</g>
		<g transform="matrix(1 0 0 1 -82.04 50.675)" id="&#x56fe;&#x5c42;_1">
<path style="stroke: rgb(35,24,21); stroke-width: 1; stroke-dasharray: none; stroke-linecap: butt; stroke-dashoffset: 0; stroke-linejoin: miter; stroke-miterlimit: 10; is-custom-font: none; font-file-url: none; fill: rgb(35,24,21); fill-rule: nonzero; opacity: 1;" transform=" translate(-167.96, -300.675)" d="M 165.54 310.77 a 62.36 62.36 0 0 1 9.32 -13.13 a 78.51 78.51 0 0 1 -3.63 -7.06 a 67.76 67.76 0 0 0 -10.17 13 c 0.53 0.94 1.06 1.88 1.62 2.81 C 163.59 307.87 164.56 309.33 165.54 310.77 Z" stroke-linecap="round"/>
</g>
		<g transform="matrix(1 0 0 1 84.3502 0.295)" id="&#x56fe;&#x5c42;_1">
<path style="stroke: rgb(35,24,21); stroke-width: 1; stroke-dasharray: none; stroke-linecap: butt; stroke-dashoffset: 0; stroke-linejoin: miter; stroke-miterlimit: 10; is-custom-font: none; font-file-url: none; fill: rgb(35,24,21); fill-rule: nonzero; opacity: 1;" transform=" translate(-334.3502, -250.295)" d="M 327.21 252.51 l 1 0.38 c 3.17 -6 14.22 -4.79 14.15 3.5 c 0 -1.67 -0.08 -3.33 -0.18 -5 a 78.27 78.27 0 0 0 -15.84 -7.19 A 82.09 82.09 0 0 1 327.21 252.51 Z" stroke-linecap="round"/>
</g>
		<g transform="matrix(1 0 0 1 35.588 74.9384)" id="&#x56fe;&#x5c42;_1">
<path style="stroke: none; stroke-width: 1; stroke-dasharray: none; stroke-linecap: butt; stroke-dashoffset: 0; stroke-linejoin: miter; stroke-miterlimit: 4; is-custom-font: none; font-file-url: none; fill: rgb(255,255,255); fill-rule: nonzero; opacity: 1;" transform=" translate(-285.5879, -324.9384)" d="M 405.36 347.5 c 1 19.06 -10.19 37.28 -28.18 44.17 c -8.12 3.11 -16.25 2.95 -24.71 2.95 H 237 c -5.48 0 -11 0.05 -16.45 0 a 54.71 54.71 0 0 1 -50 -77.11 a 53.89 53.89 0 0 1 6 -10.38 c 0.78 -1.05 1.59 -2.06 2.44 -3 c 14.38 -16.69 37.56 -22.69 58.65 -16.18 c 3.34 1 6.63 -0.74 8.47 -3.45 c 14.64 -21.53 41.42 -33.13 67.15 -28.1 a 66.85 66.85 0 0 1 13.82 4.31 c 0.87 0.38 1.73 0.77 2.57 1.18 s 1.94 1 2.89 1.49 a 67 67 0 0 1 31.6 38.11 a 6.37 6.37 0 0 0 5.31 5.44 C 388.93 311.09 404.25 327.28 405.36 347.5 Z" stroke-linecap="round"/>
</g>
		<g transform="matrix(1 0 0 1 35.6077 74.9368)" id="&#x56fe;&#x5c42;_1">
<path style="stroke: none; stroke-width: 1; stroke-dasharray: none; stroke-linecap: butt; stroke-dashoffset: 0; stroke-linejoin: miter; stroke-miterlimit: 4; is-custom-font: none; font-file-url: none; fill: rgb(35,24,21); fill-rule: nonzero; opacity: 1;" transform=" translate(-285.6077, -324.9368)" d="M 378.92 301.75 a 51.75 51.75 0 0 1 -17.73 100.37 H 220.54 a 62.24 62.24 0 1 1 19.18 -121.44 a 73.75 73.75 0 0 1 87.48 -28.16 l 1 0.38 a 72.34 72.34 0 0 1 13.39 7 c 0.22 0.14 0.44 0.28 0.65 0.43 A 73.93 73.93 0 0 1 369 292.77 c 0.95 2.24 1.8 4.54 2.53 6.89 A 50.84 50.84 0 0 1 378.92 301.75 Z m -1.74 89.92 c 18 -6.89 29.22 -25.11 28.18 -44.17 c -1.11 -20.22 -16.43 -36.41 -35.82 -40.61 a 6.37 6.37 0 0 1 -5.31 -5.44 a 67 67 0 0 0 -31.6 -38.11 c -1 -0.52 -1.91 -1 -2.89 -1.49 s -1.7 -0.8 -2.57 -1.18 a 66.85 66.85 0 0 0 -13.82 -4.31 c -25.73 -5 -52.51 6.57 -67.15 28.1 c -1.84 2.71 -5.13 4.48 -8.47 3.45 c -21.09 -6.51 -44.27 -0.51 -58.65 16.18 c -0.85 1 -1.66 2 -2.44 3 a 53.89 53.89 0 0 0 -6 10.38 a 54.71 54.71 0 0 0 50 77.11 c 5.48 0.05 11 0 16.45 0 H 352.47 C 360.93 394.62 369.06 394.78 377.18 391.67 Z" stroke-linecap="round"/>
</g>
</g>
</g>
</svg>